# xmcd
#
# Track frame offsets:
#	150
#	13687
#	25790
#	38447
#	49692
#	62842
#	75950
#	89802
#	103007
#	114605
#	131082
#	143670
#	156277
#	166547
#	180725
#	193315
#	209192
#	221725
#	235240
#	247647
#
# Disc length: 3483
#
# Revision: 1
# Processed by: cddbd v1.5.1PL0 Copyright (c) Steve Scherf et al.
# Submitted via: audiograbber 1.81.01
# Normalized: r0:DSETVAR1
#
DISCID=120d9914
DTITLE=Various Artist - Music Of The Big Chill Generation [CD2]
DYEAR=1900
DGENRE=
TTITLE0=Four Tops - Reach Out I'll Be There
TTITLE1=Temptations, The - Get Ready
TTITLE2=Ross, Diana and the Supremes - Love is Here And Now You're Gone
TTITLE3=Walker, Jr., and the All-Stars - What Does It Take (To Win Your Love?)
TTITLE4=Contours, The - Do You Love Me
TTITLE5=Ross, Diana and the Supremes - Stop! In The Name of Love
TTITLE6=Walker, Jr., and the All-Stars - Shotgun
TTITLE7=Wonder, Stevie - Uptight (Everthing's Alright)
TTITLE8=Temptations, The - Ain't Too Proud To Beg
TTITLE9=Three Dog Night - Joy To The World
TTITLE10=Knight, Gladys and the Pips - I Heard It Through The Grapevine
TTITLE11=Robinson, Smokey and the Miracles - I Second That Emotion
TTITLE12=Gaye, Marvin and Tammi Terrell - Ain't Nothing Like The Real Thing
TTITLE13=Ross, Diana and the Supremes and the Temptations - I'm Gonna Make You Love Me
TTITLE14=Temptations, The - I Wish It Would Rain
TTITLE15=Ross, Diana and the Supremes - Someday We'll Be Together
TTITLE16=Wells, Mary - You Beet Me to The Punch
TTITLE17=Robinson, Smokey and the Miracles - You've Really Got A Hold On Me
TTITLE18=Ross, Diana and the Supremes - I Hear A Symphony
TTITLE19=Gaye, Marvin and Tammi Terrell - Your Precious Love
EXTD=
EXTT0=
EXTT1=
EXTT2=
EXTT3=
EXTT4=
EXTT5=
EXTT6=
EXTT7=
EXTT8=
EXTT9=
EXTT10=
EXTT11=
EXTT12=
EXTT13=
EXTT14=
EXTT15=
EXTT16=
EXTT17=
EXTT18=
EXTT19=
PLAYORDER=
